<?xml version="1.0" encoding="UTF-8" standalone="no"?> <svg id="Layer_1" data-name="Layer 1" xmlns="http://www.w3.org/2000/svg" viewBox="0 0 32 32"><title>call</title><path d="M20.74,31.14A10.89,10.89,0,0,1,13,27.94l-9-9A10.89,10.89,0,0,1,2.79,5.08l.39-.56a4.88,4.88,0,0,1,7.47-.67l.47.47a4.9,4.9,0,0,1,.61,6.17l-.54.81a1.5,1.5,0,0,0,.19,1.88l7.43,7.43a1.5,1.5,0,0,0,1.89.19l.81-.54a4.9,4.9,0,0,1,6.17.61l.47.47a4.88,4.88,0,0,1-.67,7.47l-.56.39A10.85,10.85,0,0,1,20.74,31.14ZM7.2,4.41H6.94A2.87,2.87,0,0,0,4.83,5.65l-.39.56a8.89,8.89,0,0,0,1,11.34l9,9a8.89,8.89,0,0,0,11.35,1l.56-.39h0a2.88,2.88,0,0,0,.39-4.41l-.47-.47a2.9,2.9,0,0,0-3.64-.36l-.81.54A3.5,3.5,0,0,1,17.41,22L10,14.59a3.5,3.5,0,0,1-.44-4.41l.54-.81a2.9,2.9,0,0,0-.36-3.64l-.47-.47A2.89,2.89,0,0,0,7.2,4.41Z"/><path d="M30.14,13.19a1,1,0,0,1-1-.77,13,13,0,0,0-9.59-9.59A1,1,0,0,1,20,.89,15,15,0,0,1,31.11,12a1,1,0,0,1-.74,1.21Z"/><path d="M25.3,14a1,1,0,0,1-1-1A5.34,5.34,0,0,0,19,7.7a1,1,0,0,1,0-2h0A7.34,7.34,0,0,1,26.3,13a1,1,0,0,1-1,1Z"/></svg>