<svg width="24" height="24" viewBox="0 0 24 24" fill="none" xmlns="http://www.w3.org/2000/svg">
<path d="M24 14.7144V24H18.8559V15.3361C18.8559 13.1599 18.1117 11.6746 16.2501 11.6746C14.8287 11.6746 13.9829 12.6757 13.6105 13.6441C13.4748 13.9903 13.4398 14.4722 13.4398 14.9564V24H8.29392C8.29392 24 8.36309 9.32638 8.29392 7.80634H13.4389V10.1016C13.4285 10.1188 13.4151 10.1373 13.4052 10.1541H13.4389V10.1016C14.1226 8.99967 15.3433 7.42572 18.0758 7.42572C21.4621 7.42572 24 9.74045 24 14.7144ZM2.91154 0C1.15114 0 0 1.2083 0 2.79762C0 4.35207 1.11826 5.597 2.84362 5.597H2.87779C4.67237 5.597 5.78798 4.35207 5.78798 2.79762C5.75429 1.2083 4.67237 0 2.91154 0ZM0.305712 24H5.44939V7.80634H0.305712V24Z" fill="white"/>
</svg>
