<?xml version="1.0" encoding="UTF-8" standalone="no"?> <svg width="101" height="101" viewBox="0 0 101 101" fill="none" xmlns="http://www.w3.org/2000/svg">
<path d="M57.8799 69.2496L72.1599 46.2496C72.2074 46.1736 72.2476 46.0933 72.2799 46.0096C74.7445 41.9694 76.0549 37.3311 76.0688 32.5984C76.0828 27.8658 74.7998 23.2199 72.3591 19.1651C69.9184 15.1104 66.4134 11.8019 62.2247 9.59899C58.0361 7.39607 53.3239 6.38295 48.5999 6.66965C42.491 7.07568 36.7194 9.61717 32.2953 13.8493C27.8712 18.0815 25.0764 23.7347 24.3999 29.8196C23.794 35.4925 25.0922 41.2057 28.0899 46.0597C28.1212 46.1324 28.158 46.2026 28.1999 46.2696L41.8899 69.1796C30.8899 70.5696 24.1899 74.8397 24.1899 80.5097C24.1899 87.2297 35.5899 92.5097 50.1899 92.5097C64.7899 92.5097 76.1899 87.2397 76.1899 80.5097C76.0999 74.9997 68.9999 70.6596 57.8799 69.2496ZM30.7799 44.6996C28.0391 40.3643 26.8444 35.2296 27.3899 30.1296C27.9882 24.7516 30.4586 19.7552 34.369 16.0148C38.2794 12.2744 43.3806 10.0284 48.7799 9.66965C52.9793 9.41183 57.1684 10.3164 60.8872 12.2839C64.6061 14.2514 67.7107 17.2058 69.8601 20.8226C72.0094 24.4394 73.1205 28.5785 73.071 32.7855C73.0216 36.9924 71.8137 41.1044 69.5799 44.6696C69.5327 44.7458 69.4925 44.8262 69.4599 44.9096L49.7899 76.5596L30.9199 44.9996C30.885 44.8946 30.8381 44.7939 30.7799 44.6996V44.6996ZM50.1399 89.4996C36.6099 89.4996 27.1399 84.7596 27.1399 80.4996C27.1399 76.4996 33.8699 72.9696 43.5199 71.9896L48.4299 80.1996C48.5616 80.4197 48.7474 80.6024 48.9698 80.7302C49.1921 80.858 49.4435 80.9267 49.6999 80.9296V80.9296C49.9577 80.936 50.2127 80.8759 50.4404 80.7551C50.6681 80.6342 50.8608 80.4567 50.9999 80.2396L56.0799 72.0797C65.9599 73.0797 73.0799 76.5796 73.0799 80.5196C73.0999 84.7596 63.6699 89.4996 50.1399 89.4996Z" fill="black" stroke="black" stroke-width="2.2"/>
<path d="M60.0699 32.0596C60.0699 30.1886 59.5151 28.3596 58.4756 26.8039C57.4361 25.2482 55.9587 24.0357 54.2301 23.3197C52.5015 22.6037 50.5994 22.4164 48.7644 22.7814C46.9293 23.1464 45.2437 24.0474 43.9207 25.3704C42.5977 26.6934 41.6967 28.379 41.3317 30.2141C40.9667 32.0491 41.154 33.9512 41.87 35.6798C42.586 37.4084 43.7985 38.8858 45.3542 39.9253C46.9099 40.9648 48.7389 41.5196 50.6099 41.5196C53.118 41.517 55.5227 40.5194 57.2962 38.7459C59.0697 36.9724 60.0673 34.5678 60.0699 32.0596V32.0596ZM44.1499 32.0596C44.1499 30.7819 44.5288 29.533 45.2386 28.4706C45.9484 27.4083 46.9574 26.5803 48.1378 26.0914C49.3182 25.6024 50.6171 25.4745 51.8702 25.7237C53.1233 25.973 54.2744 26.5883 55.1778 27.4917C56.0813 28.3952 56.6965 29.5462 56.9458 30.7993C57.195 32.0524 57.0671 33.3513 56.5782 34.5317C56.0892 35.7122 55.2612 36.7211 54.1989 37.4309C53.1365 38.1407 51.8876 38.5196 50.6099 38.5196C48.8992 38.5143 47.2601 37.8317 46.0514 36.6211C44.8426 35.4105 44.1625 33.7704 44.1599 32.0596H44.1499Z" fill="black" stroke="black" stroke-width="2.2"/>
</svg>
