<svg width="32" height="32" viewBox="0 0 32 32" fill="none" xmlns="http://www.w3.org/2000/svg">
<path d="M29.971 3.67468H2.029C0.91025 3.67468 0 4.58493 0 5.70368V26.2964C0 27.4151 0.91025 28.3254 2.029 28.3254H29.971C31.0898 28.3254 32 27.4151 32 26.2964V5.70368C32 4.58493 31.0898 3.67468 29.971 3.67468ZM27.3667 4.823L16 13.1077L4.63331 4.823H27.3667ZM3.59806 27.1771H2.029C1.54344 27.1771 1.14831 26.7819 1.14831 26.2964V8.45L3.59806 10.2356V27.1771V27.1771ZM27.2536 27.1771H4.74644V11.0726L15.6619 19.0286C15.7626 19.1021 15.8813 19.1388 16 19.1388C16.1187 19.1388 16.2375 19.1021 16.3381 19.0286L27.2536 11.0726V27.1771ZM30.8517 26.2964C30.8517 26.7819 30.4566 27.1771 29.971 27.1771H28.4019V10.2356L30.8517 8.45V26.2964V26.2964ZM30.8517 7.02906L16 17.8541L1.14831 7.02906V5.70368C1.14831 5.21812 1.54344 4.823 2.029 4.823H2.68375L15.6619 14.2822C15.7626 14.3557 15.8813 14.3924 16 14.3924C16.1187 14.3924 16.2374 14.3557 16.3381 14.2822L29.3162 4.823H29.9709C30.4565 4.823 30.8516 5.21812 30.8516 5.70368V7.02906H30.8517Z" fill="white"/>
</svg>
