<svg width="37" height="36" viewBox="0 0 37 36" fill="none" xmlns="http://www.w3.org/2000/svg">
<g clip-path="url(#clip0_112_8)">
<path d="M18.3466 0C8.2304 0 0 8.07493 0 18C0 27.9251 8.2304 36 18.3466 36C28.4627 36 36.6931 27.9251 36.6931 18C36.6931 8.07493 28.4627 0 18.3466 0ZM18.3466 34.7143C8.95247 34.7143 1.31047 27.216 1.31047 18C1.31047 8.784 8.95247 1.28571 18.3466 1.28571C27.7407 1.28571 35.3827 8.784 35.3827 18C35.3827 27.216 27.7407 34.7143 18.3466 34.7143Z" fill="white"/>
<path d="M18.8098 5.97416C18.5536 5.72281 18.1395 5.72281 17.8833 5.97416L7.39951 16.2599C7.21211 16.4437 7.15576 16.7202 7.25732 16.9606C7.35888 17.2004 7.59804 17.3572 7.86276 17.3572H9.82846V28.9287C9.82846 29.2835 10.1213 29.5715 10.4837 29.5715H15.7256H20.9674H26.2093C26.5717 29.5715 26.8646 29.2835 26.8646 28.9287V17.3572H28.8303C29.095 17.3572 29.3348 17.2004 29.4357 16.9606C29.5373 16.7202 29.4809 16.4437 29.2935 16.2599L18.8098 5.97416ZM16.3808 28.2858V21.2144H20.3122V28.2858H16.3808ZM25.5541 28.2858H21.6227V20.5715C21.6227 20.2167 21.3298 19.9287 20.9674 19.9287H15.7256C15.3632 19.9287 15.0703 20.2167 15.0703 20.5715V28.2858H11.1389V17.3572H25.5541V28.2858ZM26.2093 16.0715H10.4837H9.44449L18.3465 7.33766L27.2485 16.0715H26.2093Z" fill="white"/>
</g>
<defs>
<clipPath id="clip0_112_8">
<rect width="36.6931" height="36" fill="white"/>
</clipPath>
</defs>
</svg>
