<svg width="32" height="32" viewBox="0 0 32 32" fill="none" xmlns="http://www.w3.org/2000/svg">
<g clip-path="url(#clip0_112_13)">
<path d="M20.7394 30.64L20.7386 30.64C19.3671 30.6436 18.0085 30.3757 16.7411 29.8517C15.4736 29.3277 14.3225 28.558 13.354 27.5869L13.3535 27.5864L4.35541 18.5883C4.35509 18.588 4.35476 18.5877 4.35444 18.5873C2.6502 16.8641 1.60198 14.5993 1.39119 12.1849C1.18038 9.77019 1.82045 7.35778 3.2006 5.36521C3.20072 5.36504 3.20085 5.36486 3.20097 5.36468L3.59026 4.80571L3.59026 4.80571L3.59122 4.80432C3.95653 4.27596 4.43358 3.83443 4.98856 3.511C5.54355 3.18758 6.16287 2.99018 6.80265 2.9328C7.44242 2.87541 8.08699 2.95945 8.69067 3.17895C9.29434 3.39846 9.84235 3.74805 10.2959 4.20296L10.2964 4.20351L10.7657 4.67285C10.7659 4.67301 10.7661 4.67318 10.7662 4.67334C11.482 5.39204 11.9275 6.33598 12.0273 7.34541C12.1271 8.35495 11.875 9.36798 11.3137 10.213C11.3136 10.2131 11.3136 10.2132 11.3135 10.2133L10.7739 11.0226L10.7739 11.0226L10.7719 11.0257C10.5203 11.4092 10.4081 11.8675 10.4543 12.3239C10.5004 12.7803 10.702 13.2069 11.0252 13.5323L11.0264 13.5335L18.4562 20.9634C18.4563 20.9634 18.4564 20.9635 18.4564 20.9635C18.7827 21.29 19.2118 21.4936 19.671 21.5397C20.1304 21.5859 20.5915 21.4718 20.9762 21.2167L20.9773 21.216L21.7867 20.6764C21.7867 20.6764 21.7868 20.6763 21.7869 20.6762C22.6319 20.1149 23.645 19.8628 24.6545 19.9626C25.6639 20.0624 26.6079 20.5079 27.3266 21.2237C27.3267 21.2238 27.3269 21.224 27.3271 21.2242L27.7964 21.6935L27.797 21.6941C28.2519 22.1476 28.6015 22.6956 28.821 23.2992C29.0405 23.9029 29.1245 24.5475 29.0671 25.1873C29.0097 25.827 28.8123 26.4464 28.4889 27.0014C28.1655 27.5563 27.7239 28.0334 27.1956 28.3987L27.1942 28.3997L26.6346 28.7894C26.6345 28.7894 26.6344 28.7895 26.6343 28.7896C26.6342 28.7896 26.6342 28.7896 26.6342 28.7897C24.9035 29.9922 22.8469 30.6377 20.7394 30.64ZM6.93996 3.90996H6.91723L6.8946 3.91202C6.39984 3.95708 5.92115 4.11098 5.49282 4.3627C5.0652 4.61401 4.69832 4.95661 4.41838 5.36604L4.02965 5.92421L4.02924 5.9248C2.77624 7.72949 2.19571 9.9164 2.38871 12.1049C2.5817 14.2935 3.53599 16.345 5.08549 17.9026L5.0864 17.9035L14.0864 26.9035L14.0871 26.9042C15.6453 28.4564 17.6989 29.4123 19.8898 29.6054C22.0807 29.7984 24.2698 29.2162 26.0754 27.9604L26.0757 27.9603L26.6347 27.5709C26.6349 27.5709 26.635 27.5708 26.6351 27.5707C27.0425 27.2883 27.3828 26.9198 27.6319 26.4913C27.8811 26.0626 28.0329 25.5843 28.0766 25.0904C28.1203 24.5965 28.0548 24.099 27.8847 23.6333C27.7147 23.1678 27.4444 22.7454 27.0931 22.396C27.0929 22.3958 27.0926 22.3955 27.0924 22.3953L26.6235 21.9264L26.6219 21.9248C26.0673 21.3751 25.3403 21.033 24.5631 20.9561C23.7859 20.8793 23.006 21.0723 22.3544 21.5028L22.3526 21.5039L21.5451 22.0423C21.5447 22.0425 21.5444 22.0428 21.544 22.043C20.9655 22.4233 20.2733 22.5919 19.5847 22.5201C18.8957 22.4482 18.2527 22.1401 17.7651 21.648L17.7635 21.6464L10.3536 14.2365C10.3536 14.2365 10.3536 14.2364 10.3535 14.2364C9.86418 13.7467 9.55929 13.1027 9.49056 12.4138C9.42183 11.725 9.59346 11.0335 9.97634 10.4568C9.97639 10.4567 9.97645 10.4566 9.9765 10.4565L10.516 9.64731L10.5171 9.64556C10.9476 8.99395 11.1406 8.21401 11.0638 7.43683C10.9869 6.65966 10.6448 5.93264 10.0951 5.37797L10.0935 5.37641L9.62414 4.90703C9.62402 4.90692 9.6239 4.9068 9.62379 4.90668C9.30573 4.58759 8.92726 4.33509 8.51049 4.16396C8.0942 3.99302 7.64805 3.90667 7.19806 3.90996H6.93996Z" fill="white" stroke="white"/>
<path d="M30.1399 13.1901C29.9102 13.1962 29.6853 13.123 29.5031 12.9827C29.321 12.8425 29.1927 12.6438 29.1399 12.4201C28.5789 10.0938 27.3867 7.96747 25.6946 6.27537C24.0025 4.58328 21.8762 3.39107 19.5499 2.83006C19.3133 2.75162 19.1145 2.58763 18.9926 2.37024C18.8706 2.15285 18.8342 1.89773 18.8905 1.6549C18.9468 1.41207 19.0918 1.19903 19.297 1.05755C19.5023 0.916059 19.753 0.856328 19.9999 0.89006C22.6979 1.53367 25.1647 2.91275 27.126 4.87405C29.0873 6.83536 30.4663 9.30206 31.1099 12.0001C31.1412 12.1281 31.1468 12.2611 31.1265 12.3913C31.1062 12.5216 31.0604 12.6465 30.9916 12.759C30.9228 12.8714 30.8325 12.9692 30.7258 13.0466C30.6191 13.124 30.4982 13.1795 30.3699 13.2101L30.1399 13.1901Z" fill="white"/>
<path d="M25.3 14C25.0348 14 24.7804 13.8946 24.5929 13.7071C24.4054 13.5195 24.3 13.2652 24.3 13C24.2895 11.5975 23.7278 10.2555 22.7361 9.26385C21.7444 8.27217 20.4024 7.71042 19 7.69995C18.7348 7.69995 18.4804 7.59459 18.2929 7.40706C18.1054 7.21952 18 6.96517 18 6.69995C18 6.43473 18.1054 6.18038 18.2929 5.99284C18.4804 5.80531 18.7348 5.69995 19 5.69995C20.9328 5.71046 22.7835 6.48293 24.1503 7.84968C25.517 9.21642 26.2895 11.0671 26.3 13C26.3 13.2652 26.1946 13.5195 26.0071 13.7071C25.8196 13.8946 25.5652 14 25.3 14Z" fill="white"/>
</g>
<defs>
<clipPath id="clip0_112_13">
<rect width="32" height="32" fill="white"/>
</clipPath>
</defs>
</svg>
