<svg width="32" height="32" viewBox="0 0 32 32" fill="none" xmlns="http://www.w3.org/2000/svg">
<path d="M18.3382 21.9404L22.8626 14.6533C22.8776 14.6292 22.8904 14.6038 22.9006 14.5772C23.6815 13.2972 24.0967 11.8276 24.1011 10.3281C24.1055 8.82871 23.699 7.35674 22.9257 6.07205C22.1524 4.78739 21.0419 3.73916 19.7148 3.0412C18.3877 2.34325 16.8948 2.02226 15.398 2.1131C13.4626 2.24174 11.6339 3.04696 10.2322 4.38784C8.83054 5.72873 7.94506 7.51984 7.73072 9.44773C7.53875 11.2451 7.95006 13.0552 8.89983 14.5931C8.90974 14.6161 8.9214 14.6384 8.93468 14.6596L13.2721 21.9182C9.78696 22.3586 7.66418 23.7115 7.66418 25.508C7.66418 27.6371 11.2761 29.3099 15.9018 29.3099C20.5276 29.3099 24.1394 27.6402 24.1394 25.508C24.1109 23.7622 21.8614 22.3871 18.3382 21.9404ZM9.75211 14.1622C8.88373 12.7886 8.50521 11.1618 8.67805 9.54595C8.86761 7.84203 9.65031 6.25901 10.8892 5.07394C12.1282 3.88886 13.7444 3.17725 15.4551 3.06359C16.7856 2.98191 18.1128 3.2685 19.2911 3.89187C20.4693 4.51523 21.453 5.45128 22.134 6.5972C22.8149 7.74312 23.1669 9.05451 23.1513 10.3874C23.1356 11.7203 22.7529 13.0231 22.0452 14.1527C22.0302 14.1768 22.0175 14.2023 22.0072 14.2287L15.7751 24.2564L9.79646 14.2572C9.7854 14.224 9.77054 14.1921 9.75211 14.1622ZM15.886 28.3563C11.5992 28.3563 8.59884 26.8545 8.59884 25.5048C8.59884 24.2374 10.7311 23.119 13.7885 22.8085L15.3442 25.4097C15.3859 25.4794 15.4448 25.5373 15.5152 25.5778C15.5857 25.6183 15.6653 25.6401 15.7466 25.641C15.8282 25.643 15.909 25.624 15.9812 25.5857C16.0533 25.5474 16.1144 25.4912 16.1584 25.4224L17.7679 22.8371C20.8982 23.1539 23.1541 24.2628 23.1541 25.5111C23.1604 26.8545 20.1727 28.3563 15.886 28.3563Z" fill="white" stroke="white"/>
<path d="M19.032 10.1575C19.032 9.56471 18.8563 8.98522 18.5269 8.49233C18.1976 7.99943 17.7295 7.61527 17.1818 7.38842C16.6341 7.16157 16.0315 7.10223 15.4501 7.21787C14.8687 7.33351 14.3346 7.61898 13.9155 8.03815C13.4963 8.45732 13.2108 8.99137 13.0952 9.57279C12.9795 10.1542 13.0389 10.7568 13.2657 11.3045C13.4926 11.8522 13.8767 12.3203 14.3696 12.6496C14.8625 12.9789 15.442 13.1547 16.0348 13.1547C16.8295 13.1539 17.5913 12.8378 18.1532 12.2759C18.7151 11.714 19.0312 10.9522 19.032 10.1575ZM13.9881 10.1575C13.9881 9.75268 14.1081 9.35699 14.333 9.02039C14.5579 8.68382 14.8776 8.42148 15.2516 8.26658C15.6256 8.11165 16.0371 8.07113 16.4341 8.15008C16.8311 8.22907 17.1958 8.42402 17.4821 8.71024C17.7683 8.9965 17.9632 9.36117 18.0422 9.75819C18.1212 10.1552 18.0807 10.5667 17.9258 10.9407C17.7708 11.3148 17.5085 11.6344 17.1719 11.8593C16.8353 12.0842 16.4396 12.2042 16.0348 12.2042C15.4928 12.2026 14.9735 11.9863 14.5905 11.6027C14.2076 11.2192 13.9921 10.6995 13.9913 10.1575H13.9881Z" fill="white" stroke="white"/>
</svg>
